<?xml version="1.0" encoding="utf-8"?>
<!-- Generator: Adobe Illustrator 22.1.0, SVG Export Plug-In . SVG Version: 6.00 Build 0)  -->
<svg version="1.1" id="Layer_1" xmlns="http://www.w3.org/2000/svg" xmlns:xlink="http://www.w3.org/1999/xlink" x="0px" y="0px"
	 viewBox="0 0 283.4 283.4" style="enable-background:new 0 0 283.4 283.4;" xml:space="preserve">
<style type="text/css">
	.st0{fill:#3F3E3E;}
</style>
<title>Asset 2</title>
<path class="st0" d="M89.8,164.9h-5.4v46.7h5.5c12.9,0,23.4-10.5,23.4-23.4c0-6.2-2.4-12.1-6.8-16.5C102,167.3,96,164.9,89.8,164.9z
	"/>
<path class="st0" d="M184.6,112.6c2.7-2.6,5.1-5.1,5.7-5.7l-12.5-12.3l-5.6,5.6c-1.6,1.7-2.6,3.9-2.6,6.3c0,2.3,0.9,4.5,2.6,6.1
	c3.3,3.4,8.8,3.5,12.2,0.2C184.5,112.7,184.5,112.7,184.6,112.6z"/>
<path class="st0" d="M124.4,113c0-10.7-4.2-20.9-11.8-28.4c-7.5-7.5-17.7-11.7-28.3-11.8v80.4c10.6,0,20.8-4.2,28.3-11.8
	C120.2,133.9,124.5,123.7,124.4,113z"/>
<path class="st0" d="M180.8,144.6c-8.9,0-17.4,3.5-23.7,9.8c-6.3,6.3-9.8,14.8-9.8,23.7c0,8.9,3.5,17.4,9.8,23.7
	c13.1,13.1,34.3,13.1,47.4,0c6.3-6.3,9.8-14.8,9.8-23.7C214.3,159.6,199.4,144.6,180.8,144.6C180.9,144.6,180.8,144.6,180.8,144.6z"
	/>
<path class="st0" d="M141.7,0C63.4,0,0,63.4,0,141.7s63.4,141.7,141.7,141.7S283.4,220,283.4,141.7C283.4,63.4,220,0,141.7,0z
	 M164.8,74.9c0-4.1,1.6-8,4.4-10.9c6.1-6.4,16.2-6.6,22.5-0.5c0.1,0.1,0.1,0.1,0.2,0.2l0.2,0.2L192,64l-2.6,2.6l-3.7,3.7l-0.1,0.1
	l-0.1-0.1c-1.2-1.3-2.9-1.9-4.6-1.9c-1.8,0-3.4,0.8-4.7,2c-1.2,1.2-1.8,2.8-1.8,4.5c0,1.8,0.7,3.4,2,4.6
	c2.3,2.3,20.7,20.8,20.7,20.8l6.3-6.3l6.6,6.6l-6.3,6.3l8.9,8.9l-0.1,0.2l-6.3,6.3l-9-8.8c-1.5,1.4-3,2.9-5.6,5.6
	c-3.2,3.1-7.3,5-11.7,5.3c-10,0.6-18.6-7.1-19.2-17.1c0-0.2,0-0.5,0-0.7c0-4.9,1.9-9.6,5.3-13.2l5.6-5.5
	C167.3,84.9,164.8,80.1,164.8,74.9z M114.6,213c-6.5,6.6-15.4,10.2-24.7,10.2H72.8V61.3h11.5c28.6,0,51.8,23.2,51.8,51.8
	c0,19.1-10.5,36.7-27.4,45.7c4.8,3.1,8.9,7.3,11.7,12.3C128.1,184.8,125.7,201.9,114.6,213z M212.6,210c-17.6,17.6-46.2,17.7-63.9,0
	s-17.7-46.2,0-63.9s46.2-17.7,63.9,0c8.5,8.5,13.2,20,13.2,32C225.8,190.1,221.1,201.6,212.6,210z"/>
</svg>
